<svg width="26" height="23" viewBox="0 0 26 23" fill="none" xmlns="http://www.w3.org/2000/svg">
<path d="M23.475 1.56458C22.1035 0.441668 20.3607 -0.111105 18.6007 0.0185802C16.8408 0.148266 15.1956 0.95068 13.9996 2.26278L12.9994 3.30643L11.9991 2.26424C10.8033 0.951926 9.15825 0.149239 7.39828 0.0192818C5.6383 -0.110675 3.89541 0.441848 2.52377 1.56458C1.77588 2.21843 1.16724 3.01919 0.734802 3.91824C0.302369 4.81728 0.0551724 5.79584 0.00822835 6.79446C-0.0387157 7.79309 0.115573 8.79095 0.461721 9.72742C0.80787 10.6639 1.33865 11.5194 2.02183 12.2421L11.8438 22.5018C11.9922 22.6593 12.1707 22.7846 12.3684 22.8702C12.5661 22.9558 12.7789 23 12.9939 23C13.209 23 13.4218 22.9558 13.6195 22.8702C13.8172 22.7846 13.9957 22.6593 14.1441 22.5018L23.9733 12.2421C24.6576 11.5202 25.1895 10.665 25.5366 9.72853C25.8836 8.79209 26.0385 7.79402 25.9919 6.79509C25.9453 5.79617 25.6981 4.81729 25.2654 3.91807C24.8327 3.01884 24.2235 2.2181 23.475 1.56458Z" fill="#F50D0D"/>
</svg>
