<svg width="32" height="16" viewBox="0 0 32 16" fill="none" xmlns="http://www.w3.org/2000/svg">
<path d="M22.074 4.92481H0.844C0.62033 4.92481 0.405807 5.01359 0.247555 5.17166C0.0893032 5.32972 0.000265011 5.54414 0 5.76781L0 9.70581C0 9.92965 0.0889212 10.1443 0.247202 10.3026C0.405483 10.4609 0.620157 10.5498 0.844 10.5498H22.074V13.7888C22.0742 14.1225 22.1734 14.4486 22.3589 14.726C22.5444 15.0034 22.8079 15.2195 23.1162 15.3472C23.4245 15.4749 23.7637 15.5083 24.091 15.4432C24.4183 15.3782 24.7189 15.2176 24.955 14.9818L31.006 8.93081C31.1627 8.77415 31.287 8.58817 31.3718 8.38347C31.4566 8.17877 31.5002 7.95937 31.5002 7.73781C31.5002 7.51624 31.4566 7.29685 31.3718 7.09215C31.287 6.88745 31.1627 6.70147 31.006 6.54481L24.955 0.493809C24.7189 0.257979 24.4183 0.0974035 24.091 0.0323701C23.7637 -0.0326632 23.4245 0.000762641 23.1162 0.128425C22.8079 0.256088 22.5444 0.472259 22.3589 0.749631C22.1734 1.027 22.0742 1.35313 22.074 1.68681V4.92481Z" fill="white"/>
</svg>
