<svg xmlns="http://www.w3.org/2000/svg" width="36" height="30" viewBox="0 0 36 30">
  <path id="Icon_metro-twitter" data-name="Icon metro-twitter" d="M38.571,8.369a14.482,14.482,0,0,1-4.242,1.193,7.566,7.566,0,0,0,3.247-4.19,14.566,14.566,0,0,1-4.69,1.838,7.292,7.292,0,0,0-5.391-2.392,7.482,7.482,0,0,0-7.386,7.573,7.787,7.787,0,0,0,.191,1.726A20.8,20.8,0,0,1,5.077,6.2,7.71,7.71,0,0,0,7.363,16.315a7.217,7.217,0,0,1-3.345-.947c0,.032,0,.063,0,.1a7.533,7.533,0,0,0,5.925,7.426,7.22,7.22,0,0,1-3.335.13,7.419,7.419,0,0,0,6.9,5.26A14.612,14.612,0,0,1,2.571,31.414a20.53,20.53,0,0,0,11.322,3.4c13.585,0,21.014-11.54,21.014-21.549q0-.493-.021-.98a15.221,15.221,0,0,0,3.686-3.92Z" transform="translate(-2.571 -4.817)"/>
</svg>
